<?xml version="1.0" standalone="no"?>
<!DOCTYPE svg PUBLIC "-//W3C//DTD SVG 20010904//EN"
 "http://www.w3.org/TR/2001/REC-SVG-20010904/DTD/svg10.dtd">
<svg version="1.0" xmlns="http://www.w3.org/2000/svg"
 width="611.000000pt" height="500.000000pt" viewBox="0 0 611.000000 500.000000"
 preserveAspectRatio="xMidYMid meet">

<g transform="translate(0.000000,500.000000) scale(0.100000,-0.100000)"
fill="#000000" stroke="none">
<path d="M3658 4546 c-90 -32 -110 -44 -368 -242 -124 -94 -248 -186 -277
-203 -48 -30 -51 -34 -46 -65 4 -27 -1 -39 -26 -68 -26 -30 -41 -38 -94 -47
-101 -17 -131 -14 -168 17 l-34 27 35 -44 c43 -54 76 -71 135 -71 57 0 133 37
197 96 26 24 66 52 90 63 144 66 232 103 298 127 101 35 195 83 305 154 104
68 128 90 149 142 32 75 -9 139 -88 137 -22 0 -71 -11 -108 -23z"/>
<path d="M2773 4113 c15 -2 37 -2 50 0 12 2 0 4 -28 4 -27 0 -38 -2 -22 -4z"/>
<path d="M2890 4075 c13 -14 26 -25 28 -25 3 0 -5 11 -18 25 -13 14 -26 25
-28 25 -3 0 5 -11 18 -25z"/>
<path d="M2921 4024 c0 -11 3 -14 6 -6 3 7 2 16 -1 19 -3 4 -6 -2 -5 -13z"/>
<path d="M2644 4015 c-3 -8 -4 -20 -2 -27 3 -7 7 -1 10 15 6 29 1 36 -8 12z"/>
<path d="M2901 3973 c-10 -26 -10 -27 4 -9 8 11 15 23 15 28 0 15 -7 8 -19
-19z"/>
<path d="M2649 3794 c-9 -11 -10 -20 -2 -32 13 -21 35 -22 40 -2 4 13 3 13 -6
0 -8 -11 -13 -12 -22 -3 -16 16 -3 47 17 39 8 -3 12 -2 9 4 -9 14 -21 12 -36
-6z"/>
<path d="M2812 3728 c-15 -15 -16 -38 -1 -38 5 0 7 5 4 10 -4 6 -1 17 5 25 15
18 9 20 -8 3z"/>
<path d="M2516 3630 c-122 -22 -141 -147 -29 -201 40 -19 53 -21 121 -13 94
11 181 11 382 0 93 -5 178 -4 213 2 57 9 58 9 72 -18 7 -14 34 -43 60 -64 25
-21 52 -51 61 -68 41 -79 73 -589 45 -727 -7 -34 -11 -64 -9 -66 2 -2 17 8 33
23 l30 25 3 156 c4 156 -25 493 -49 585 -10 38 -36 69 -107 128 -19 15 -35 40
-39 58 -6 31 -7 32 -42 24 -62 -15 -722 -11 -753 4 -16 7 -28 16 -28 20 0 5
557 8 704 2 35 -1 51 12 43 34 -6 14 -35 15 -254 10 -271 -7 -417 -7 -477 2
l-38 6 20 20 c28 29 131 37 312 26 80 -4 209 -7 287 -6 156 2 173 -3 173 -53
0 -22 5 -29 19 -29 24 0 35 29 22 62 -19 49 -33 53 -200 53 -86 0 -239 3 -341
7 -102 4 -207 3 -234 -2z"/>
<path d="M2361 3341 c-80 -83 -97 -110 -117 -186 -35 -129 12 -685 68 -817 26
-62 142 -173 195 -187 53 -15 140 -13 428 9 249 19 272 22 353 55 37 15 42 21
42 50 l0 33 -52 -28 c-57 -30 -125 -45 -253 -55 -44 -3 -154 -13 -245 -21
-235 -22 -269 -15 -365 81 -76 76 -87 121 -120 462 -20 204 -19 355 1 422 11
40 31 69 83 124 72 76 96 111 86 127 -12 19 -30 6 -104 -69z"/>
<path d="M2760 3276 c0 -8 7 -17 16 -20 13 -5 14 -4 6 7 -7 8 -9 17 -5 20 3 4
1 7 -5 7 -7 0 -12 -6 -12 -14z"/>
<path d="M2895 3129 c-11 -16 -1 -19 13 -3 7 8 8 14 3 14 -5 0 -13 -5 -16 -11z"/>
<path d="M2942 3100 c-13 -21 -47 -27 -55 -10 -3 6 -4 5 -3 -2 4 -21 41 -20
61 2 10 11 16 22 14 25 -3 2 -10 -5 -17 -15z"/>
<path d="M2884 2902 c11 -19 -2 -49 -25 -55 -14 -4 -23 1 -29 16 l-9 22 0 -21
c-1 -26 16 -34 46 -23 26 10 40 47 23 63 -10 8 -11 8 -6 -2z"/>
<path d="M3132 2780 c10 -16 10 -24 -1 -42 -12 -22 -12 -22 4 -6 18 17 14 68
-5 68 -6 0 -5 -9 2 -20z"/>
<path d="M2880 2735 c0 -5 5 -17 10 -25 5 -8 10 -10 10 -5 0 6 -5 17 -10 25
-5 8 -10 11 -10 5z"/>
<path d="M2965 2680 c-3 -5 -17 -10 -31 -10 -14 0 -35 -6 -47 -14 -18 -12 -30
-13 -64 -4 -34 10 -60 8 -145 -9 -140 -28 -215 -58 -262 -105 -35 -35 -38 -42
-33 -79 8 -58 55 -130 99 -152 75 -37 174 -50 378 -51 131 -1 215 4 255 13
130 29 229 94 241 156 11 59 -7 106 -54 142 -75 57 -297 115 -317 83 -9 -15
-25 -12 -25 5 0 7 8 19 18 24 9 6 12 11 5 11 -6 0 -15 -4 -18 -10z m-220 -120
c-5 -8 -11 -8 -17 -2 -6 6 -7 16 -3 22 5 8 11 8 17 2 6 -6 7 -16 3 -22z m199
-16 c19 -19 20 -25 3 -48 -10 -14 -18 -15 -39 -7 -34 13 -41 26 -28 51 13 24
43 26 64 4z m181 -65 c9 -27 -3 -57 -27 -70 -18 -9 -24 -8 -35 7 -14 20 -9 50
14 76 18 20 40 14 48 -13z m-419 -14 c11 -45 -37 -74 -66 -40 -20 24 3 65 35
65 18 0 26 -7 31 -25z m560 -36 c3 -6 0 -15 -7 -20 -14 -8 -32 9 -23 23 7 11
22 10 30 -3z m-316 -54 c18 -21 8 -48 -23 -63 -22 -11 -31 -11 -43 -2 -21 18
-17 47 8 64 28 20 42 20 58 1z m-180 -10 c17 -20 -1 -70 -25 -70 -30 0 -41 29
-22 59 20 30 30 32 47 11z"/>
<path d="M3600 2536 c0 -2 7 -7 16 -10 8 -3 12 -2 9 4 -6 10 -25 14 -25 6z"/>
<path d="M3676 2481 c17 -20 40 -49 52 -65 12 -16 22 -24 22 -19 0 5 -24 34
-52 65 -29 30 -39 38 -22 19z"/>
<path d="M3384 2408 l-19 -23 23 19 c21 18 27 26 19 26 -2 0 -12 -10 -23 -22z"/>
<path d="M3794 2347 c21 -26 40 -47 43 -47 7 0 -56 78 -70 87 -6 4 6 -14 27
-40z"/>
<path d="M3842 2265 c0 -16 2 -22 5 -12 2 9 2 23 0 30 -3 6 -5 -1 -5 -18z"/>
<path d="M3805 2209 c-16 -10 -25 -19 -19 -19 7 0 22 9 35 20 30 24 23 24 -16
-1z"/>
<path d="M3453 2193 c15 -2 37 -2 50 0 12 2 0 4 -28 4 -27 0 -38 -2 -22 -4z"/>
<path d="M3808 1641 c-89 -29 -150 -102 -150 -178 0 -70 21 -110 105 -200 89
-96 112 -134 97 -163 -14 -27 -78 -27 -132 1 -29 15 -43 18 -51 10 -13 -13
-29 -153 -19 -163 11 -10 130 -28 192 -28 155 0 253 155 177 281 -14 24 -58
80 -96 124 -39 44 -74 90 -77 103 -10 35 20 51 92 52 70 0 70 1 80 84 6 49 5
52 -21 64 -35 16 -162 24 -197 13z"/>
<path d="M2787 1625 c-13 -12 -17 -34 -17 -86 0 -76 -1 -75 80 -81 l35 -3 5
-255 c3 -140 7 -256 8 -258 1 -1 41 -1 90 0 l87 3 -3 249 c-2 176 1 252 9 262
7 8 30 14 55 14 23 0 46 5 49 11 4 6 9 36 12 67 4 42 2 61 -8 69 -8 6 -89 14
-200 18 -166 7 -187 6 -202 -10z"/>
<path d="M3380 1633 c-19 -3 -40 -9 -47 -15 -18 -15 -18 -661 0 -676 8 -7 45
-11 85 -10 63 1 72 3 79 22 4 12 7 165 6 340 -1 379 8 354 -123 339z"/>
<path d="M1695 1620 c-8 -13 23 -109 91 -280 l58 -145 3 -120 c1 -65 5 -125 7
-132 6 -14 101 -17 146 -4 25 7 25 9 28 116 2 100 6 123 49 250 25 77 59 173
74 213 45 112 45 112 -56 112 l-84 0 -11 -42 c-6 -24 -21 -70 -32 -103 -11
-33 -22 -67 -25 -75 -7 -23 -17 1 -38 90 -10 41 -24 87 -32 103 -13 26 -16 27
-93 27 -43 0 -82 -4 -85 -10z"/>
<path d="M2343 1618 c-10 -13 -12 -23 -39 -198 -15 -97 -52 -287 -77 -396 -21
-87 -14 -94 84 -94 76 0 80 1 89 26 6 14 10 41 10 59 0 38 20 55 64 55 31 0
46 -25 46 -77 0 -52 14 -63 80 -62 116 2 123 12 91 141 -11 46 -27 126 -35
178 -9 52 -25 149 -36 215 -11 66 -20 123 -20 127 0 4 -7 14 -16 22 -20 21
-226 23 -241 4z m137 -349 c0 -20 -4 -29 -12 -26 -7 2 -13 9 -12 15 1 7 2 21
3 33 2 31 21 12 21 -22z"/>
</g>
</svg>
