<?xml version="1.0" standalone="no"?>
<!DOCTYPE svg PUBLIC "-//W3C//DTD SVG 20010904//EN"
 "http://www.w3.org/TR/2001/REC-SVG-20010904/DTD/svg10.dtd">
<svg version="1.0" xmlns="http://www.w3.org/2000/svg"
 width="491.678922pt" height="444.581554pt" viewBox="0 0 491.678922 444.581554"
 preserveAspectRatio="xMidYMid meet">
<metadata>
Created by potrace 1.12, written by Peter Selinger 2001-2015
</metadata>
<g transform="translate(-12.754399,498.456554) scale(0.100000,-0.100000)"
fill="#000000" stroke="none">
<path d="M2553 4983 c-30 -4 -34 -10 -62 -83 -53 -137 -74 -227 -68 -297 8
-104 45 -140 176 -168 200 -45 298 -109 652 -430 236 -214 285 -255 305 -255
10 0 52 -17 94 -39 41 -21 93 -42 114 -46 68 -12 332 -152 364 -193 6 -9 12
-30 12 -47 0 -31 -7 -42 -164 -269 -61 -88 -94 -156 -141 -284 -45 -123 -92
-198 -171 -273 -95 -90 -186 -125 -230 -88 -26 21 -45 75 -38 107 3 15 22 77
42 137 35 104 37 117 36 235 0 99 -5 142 -23 208 -24 84 -85 194 -114 205 -28
10 -48 62 -37 92 6 15 10 30 10 35 0 36 -959 564 -983 541 -5 -5 -1 -35 7 -67
34 -133 47 -271 52 -559 6 -339 19 -512 41 -537 8 -9 23 -55 34 -101 10 -47
28 -101 40 -121 22 -37 61 -190 79 -313 12 -78 0 -123 -36 -137 -10 -4 -81
-13 -158 -21 -295 -30 -345 -37 -481 -63 -111 -20 -171 -26 -290 -27 -180 0
-205 9 -205 74 0 63 33 92 157 141 173 69 228 108 329 234 82 102 115 171 125
261 6 59 11 73 34 91 l27 22 -11 68 c-7 38 -27 141 -46 230 -19 88 -70 356
-114 595 -44 239 -92 488 -106 554 -22 102 -54 301 -55 343 0 23 -27 12 -116
-50 -142 -98 -219 -165 -318 -274 -419 -463 -558 -1088 -375 -1686 162 -530
578 -957 1104 -1133 374 -125 758 -123 1128 5 607 210 1042 723 1154 1360 25
140 22 428 -5 582 -60 329 -208 628 -437 882 -281 310 -725 526 -1135 551 -52
3 -111 7 -130 9 -19 1 -49 1 -67 -1z"/>
<path d="M1904 4838 c-27 -12 -31 -33 -45 -212 -11 -149 -6 -260 15 -311 13
-30 74 -90 83 -82 2 3 -6 24 -19 48 -31 59 -35 198 -14 384 9 77 18 149 19
159 2 23 -11 28 -39 14z"/>
<path d="M2514 4386 c-9 -24 3 -34 57 -45 97 -21 251 -91 407 -186 65 -40 50
-12 -27 50 -125 101 -270 172 -388 190 -34 5 -44 3 -49 -9z"/>
<path d="M2238 4039 c-2 -7 4 -35 14 -64 25 -76 48 -213 55 -338 3 -59 10
-110 14 -112 24 -15 23 305 -2 390 -29 103 -68 162 -81 124z"/>
<path d="M3542 3708 c6 -17 105 -66 165 -82 59 -16 255 -124 302 -166 19 -18
31 -39 31 -55 0 -31 -59 -143 -142 -271 -36 -55 -79 -142 -108 -218 -65 -165
-80 -194 -146 -272 -63 -74 -43 -72 27 3 62 66 89 115 150 272 50 131 65 157
202 352 37 53 70 111 73 128 6 28 2 36 -35 70 -49 46 -290 171 -329 171 -15 0
-60 18 -100 40 -76 42 -96 48 -90 28z"/>
<path d="M3370 3551 c0 -12 59 -35 68 -27 4 4 -2 14 -12 22 -22 16 -56 19 -56
5z"/>
<path d="M2122 2943 c2 -5 12 -25 22 -47 12 -26 21 -35 28 -28 12 12 -14 67
-37 76 -9 3 -15 3 -13 -1z"/>
<path d="M2370 2896 c0 -36 32 -149 52 -181 22 -38 57 -236 58 -331 0 -40 -5
-55 -22 -71 -27 -26 -137 -48 -306 -63 -64 -6 -193 -24 -287 -40 -100 -17
-218 -30 -287 -32 -71 -2 -113 -7 -108 -12 10 -10 186 -10 260 0 25 3 108 16
185 30 77 13 221 31 320 39 206 18 248 26 277 52 18 16 20 26 14 98 -7 102
-48 275 -74 317 -12 19 -26 56 -32 83 -20 93 -31 125 -40 125 -6 0 -10 -6 -10
-14z"/>
<path d="M825 1003 c-179 -394 -190 -416 -220 -434 l-30 -19 79 0 c77 0 79 0
62 19 -17 18 -17 22 2 64 l20 44 81 1 82 1 19 -32 c23 -36 25 -68 8 -85 -9 -9
13 -12 101 -12 l113 0 -29 24 c-19 16 -65 101 -138 255 -60 127 -112 231 -116
231 -4 0 -19 -26 -34 -57z m37 -218 c15 -37 28 -70 28 -72 0 -1 -29 -3 -65 -3
-36 0 -65 4 -65 10 0 5 11 34 25 64 14 30 25 60 25 66 0 30 27 -3 52 -65z"/>
<path d="M1090 1000 l0 -55 19 31 c22 35 67 49 126 38 l35 -6 0 -206 c0 -197
-1 -207 -22 -229 l-21 -23 109 0 c86 1 105 3 89 12 -11 6 -23 16 -27 22 -4 6
-8 104 -8 218 l0 208 26 6 c15 4 47 3 73 -2 38 -7 49 -15 63 -42 20 -41 26
-32 20 33 l-4 50 -239 0 -239 0 0 -55z"/>
<path d="M2001 1043 c-53 -28 -76 -66 -75 -123 0 -28 8 -59 18 -74 9 -15 62
-56 117 -93 127 -83 144 -120 77 -167 -63 -44 -188 16 -188 90 0 33 -18 30
-26 -3 -3 -16 -8 -36 -11 -46 -7 -28 23 -65 66 -78 59 -18 184 -8 217 17 45
33 67 70 71 121 7 68 -20 102 -142 177 -89 55 -100 65 -103 93 -3 25 2 35 23
49 49 32 155 11 155 -31 0 -8 4 -15 9 -15 12 0 23 72 12 83 -4 4 -48 10 -97
13 -74 5 -95 2 -123 -13z"/>
<path d="M2633 1041 c-49 -23 -73 -62 -73 -121 0 -61 25 -94 115 -152 102 -66
135 -96 135 -124 0 -59 -81 -91 -153 -60 -29 12 -43 26 -61 67 -22 47 -25 49
-35 31 -6 -12 -11 -39 -11 -61 0 -57 28 -73 135 -79 72 -4 90 -1 130 18 60 29
85 69 85 137 0 66 -22 93 -133 161 -107 66 -124 84 -111 120 20 57 134 61 171
6 19 -30 33 -17 33 32 0 30 -2 31 -52 38 -87 10 -131 7 -175 -13z"/>
<path d="M3767 1046 c-146 -41 -221 -185 -175 -340 18 -59 90 -127 157 -149
119 -38 271 -13 343 57 55 53 73 100 72 186 0 115 -46 185 -149 231 -62 28
-179 35 -248 15z m143 -26 c31 0 87 -57 107 -108 26 -69 23 -184 -6 -245 -69
-142 -243 -123 -287 31 -33 114 1 267 68 303 32 17 71 28 86 23 8 -2 22 -4 32
-4z"/>
<path d="M4406 1050 c-176 -5 -178 -5 -157 -24 20 -18 21 -28 21 -228 0 -197
-1 -209 -20 -226 -20 -16 -18 -17 62 -22 46 -3 131 -4 190 -2 l107 3 11 55
c15 72 9 86 -18 40 -28 -47 -76 -68 -150 -64 l-57 3 -3 89 c-3 101 -1 106 66
106 36 0 49 -5 73 -31 l29 -31 0 71 c0 68 -12 93 -25 51 -8 -24 -36 -32 -96
-28 l-44 3 -1 97 c-2 90 0 97 20 102 67 18 153 -3 162 -40 3 -13 10 -24 15
-24 11 0 12 98 2 102 -5 2 -88 1 -187 -2z"/>
<path d="M4785 1046 c-50 -22 -77 -60 -82 -113 -6 -66 21 -104 122 -171 110
-73 125 -87 125 -120 0 -60 -84 -90 -155 -56 -29 13 -43 30 -60 68 l-23 51
-11 -28 c-6 -16 -11 -44 -11 -63 0 -32 4 -37 45 -55 30 -13 67 -20 110 -20
122 0 198 57 199 152 1 65 -20 90 -142 171 -91 61 -102 71 -102 98 0 38 36 63
89 62 44 -1 78 -18 87 -44 10 -33 24 -18 24 26 l0 43 -52 7 c-80 9 -130 7
-163 -8z"/>
<path d="M134 1035 c11 -8 23 -15 28 -15 4 0 44 -55 88 -122 l80 -123 0 -97
c0 -87 -2 -98 -21 -112 -21 -14 -21 -15 12 -18 19 -2 67 -2 108 0 68 3 72 5
52 18 -19 14 -21 25 -21 112 l0 97 75 115 c53 82 85 121 112 137 l38 23 -82 0
c-49 0 -83 -4 -83 -10 0 -5 5 -10 10 -10 17 0 11 -29 -16 -78 -53 -95 -76
-132 -83 -132 -3 0 -30 44 -60 97 -47 86 -51 98 -37 109 9 6 16 14 16 18 0 3
-53 6 -117 6 -106 -1 -116 -2 -99 -15z"/>
<path d="M1643 1029 l27 -21 0 -206 c0 -114 -4 -212 -8 -218 -4 -6 -16 -16
-27 -22 -16 -9 4 -11 94 -12 l114 0 -27 21 -26 20 0 205 0 205 26 24 27 25
-114 0 -114 -1 28 -20z"/>
<path d="M2988 1033 c22 -15 22 -19 22 -234 0 -214 0 -218 -22 -233 -21 -15
-15 -16 86 -16 105 0 107 1 87 18 -20 16 -22 25 -19 117 l3 100 100 0 100 0 3
-100 c3 -92 1 -101 -19 -117 -20 -17 -18 -18 87 -18 101 0 107 1 86 16 -22 15
-22 19 -22 233 0 215 0 219 23 234 21 15 15 16 -87 16 l-110 1 22 -20 c20 -19
22 -31 22 -115 l0 -95 -105 0 -105 0 0 99 c0 91 2 100 23 114 21 15 15 16 -88
16 -103 0 -109 -1 -87 -16z"/>
</g>
</svg>
